<svg width="56" height="56" viewBox="0 0 56 56" fill="none" xmlns="http://www.w3.org/2000/svg">
<rect width="56" height="56" rx="10" fill="#007FB1"/>
<path d="M19.5667 16.3333C19.5663 17.2173 19.2146 18.065 18.5892 18.6898C17.9638 19.3146 17.1157 19.6654 16.2317 19.665C15.3476 19.6645 14.5 19.3129 13.8752 18.6875C13.2503 18.062 12.8996 17.214 12.9 16.33C12.9005 15.4459 13.2521 14.5982 13.8775 13.9734C14.5029 13.3486 15.351 12.9978 16.235 12.9983C17.1191 12.9987 17.9668 13.3503 18.5916 13.9758C19.2164 14.6012 19.5671 15.4492 19.5667 16.3333ZM19.6667 22.1333H13V43H19.6667V22.1333ZM30.2 22.1333H23.5667V43H30.1334V32.05C30.1334 25.95 38.0834 25.3833 38.0834 32.05V43H44.6667V29.7833C44.6667 19.5 32.9 19.8833 30.1334 24.9333L30.2 22.1333Z" fill="#E6F0FF"/>
</svg>
