<svg width="56" height="56" viewBox="0 0 56 56" fill="none" xmlns="http://www.w3.org/2000/svg">
<rect width="56" height="56" rx="10" fill="#00ACED"/>
<path d="M44.6667 17.6668C43.4139 18.2103 42.0891 18.5695 40.7333 18.7334C42.1636 17.879 43.2355 16.5347 43.75 14.9501C42.4059 15.7502 40.9346 16.3139 39.4 16.6168C38.3743 15.5044 37.0083 14.7639 35.5164 14.5115C34.0244 14.2591 32.4909 14.509 31.1563 15.2221C29.8217 15.9351 28.7616 17.071 28.1421 18.4515C27.5226 19.832 27.3788 21.3791 27.7333 22.8501C25.0157 22.7126 22.3574 22.005 19.9311 20.7732C17.5048 19.5414 15.3648 17.8129 13.65 15.7001C13.0486 16.7504 12.7325 17.9398 12.7333 19.1501C12.7312 20.2741 13.007 21.3811 13.5363 22.3727C14.0655 23.3643 14.8317 24.2096 15.7667 24.8334C14.68 24.8039 13.6165 24.5123 12.6667 23.9834V24.0668C12.6748 25.6416 13.2267 27.1653 14.2289 28.38C15.2311 29.5948 16.6221 30.4262 18.1667 30.7334C17.5721 30.9144 16.9548 31.0098 16.3333 31.0168C15.9032 31.0117 15.474 30.9727 15.05 30.9001C15.4899 32.2548 16.341 33.4387 17.4851 34.287C18.6292 35.1354 20.0093 35.606 21.4333 35.6334C19.0287 37.5256 16.0598 38.5582 13 38.5668C12.4429 38.5686 11.8862 38.5352 11.3333 38.4668C14.4574 40.4839 18.098 41.5546 21.8167 41.5501C24.3828 41.5768 26.9286 41.0918 29.3052 40.1236C31.6818 39.1553 33.8417 37.7232 35.6587 35.9109C37.4757 34.0986 38.9133 31.9424 39.8876 29.5683C40.8619 27.1941 41.3534 24.6497 41.3333 22.0834V21.2001C42.6412 20.2248 43.7691 19.0291 44.6667 17.6668Z" fill="#E6F0FF"/>
</svg>
