<svg width="56" height="56" viewBox="0 0 56 56" fill="none" xmlns="http://www.w3.org/2000/svg">
<rect width="56" height="56" rx="10" fill="#25D366"/>
<path d="M39.75 16.1834C38.222 14.6399 36.402 13.4161 34.3961 12.5834C32.3902 11.7507 30.2385 11.3258 28.0667 11.3334C18.9667 11.3334 11.55 18.75 11.55 27.85C11.55 30.7667 12.3167 33.6 13.75 36.1L11.4167 44.6667L20.1667 42.3667C22.5834 43.6834 25.3 44.3833 28.0667 44.3833C37.1667 44.3833 44.5834 36.9667 44.5834 27.8667C44.5834 23.45 42.8667 19.3 39.75 16.1834ZM28.0667 41.5833C25.6 41.5833 23.1834 40.9167 21.0667 39.6667L20.5667 39.3667L15.3667 40.7333L16.75 35.6667L16.4167 35.15C15.0463 32.9616 14.3186 30.4321 14.3167 27.85C14.3167 20.2834 20.4834 14.1167 28.05 14.1167C31.7167 14.1167 35.1667 15.55 37.75 18.15C39.0292 19.4233 40.0429 20.9378 40.7323 22.6057C41.4218 24.2737 41.7734 26.0619 41.7667 27.8667C41.8 35.4333 35.6334 41.5833 28.0667 41.5833ZM35.6 31.3167C35.1834 31.1167 33.15 30.1167 32.7834 29.9667C32.4 29.8334 32.1334 29.7667 31.85 30.1667C31.5667 30.5834 30.7834 31.5167 30.55 31.7834C30.3167 32.0667 30.0667 32.1 29.65 31.8833C29.2334 31.6833 27.9 31.2334 26.3334 29.8334C25.1 28.7334 24.2834 27.3834 24.0334 26.9667C23.8 26.55 24 26.3333 24.2167 26.1167C24.4 25.9333 24.6334 25.6333 24.8334 25.4C25.0334 25.1667 25.1167 24.9833 25.25 24.7167C25.3834 24.4333 25.3167 24.2 25.2167 24C25.1167 23.8 24.2834 21.7667 23.95 20.9334C23.6167 20.1334 23.2667 20.2334 23.0167 20.2167H22.2167C21.9334 20.2167 21.5 20.3167 21.1167 20.7334C20.75 21.15 19.6834 22.15 19.6834 24.1834C19.6834 26.2167 21.1667 28.1834 21.3667 28.45C21.5667 28.7334 24.2834 32.9 28.4167 34.6834C29.4 35.1167 30.1667 35.3667 30.7667 35.55C31.75 35.8667 32.65 35.8167 33.3667 35.7167C34.1667 35.6 35.8167 34.7167 36.15 33.75C36.5 32.7833 36.5 31.9667 36.3834 31.7834C36.2667 31.6 36.0167 31.5167 35.6 31.3167Z" fill="#E6F0FF"/>
</svg>
