<svg width="52" height="52" viewBox="0 0 52 52" fill="none" xmlns="http://www.w3.org/2000/svg">
<g filter="url(#filter0_d_88_360)">
<rect x="4.5" y="0.5" width="43" height="43" rx="4.5" fill="#99C2FF" stroke="#E6F0FF"/>
<path d="M37.8639 31.6745C36.1083 28.6394 33.4029 26.463 30.2455 25.4313C31.8073 24.5016 33.0207 23.0849 33.6994 21.3988C34.378 19.7127 34.4845 17.8505 34.0023 16.0981C33.5202 14.3456 32.4761 12.7999 31.0305 11.6983C29.5849 10.5966 27.8176 10 26 10C24.1824 10 22.4151 10.5966 20.9695 11.6983C19.5239 12.7999 18.4798 14.3456 17.9977 16.0981C17.5155 17.8505 17.622 19.7127 18.3006 21.3988C18.9793 23.0849 20.1927 24.5016 21.7545 25.4313C18.5971 26.4619 15.8917 28.6382 14.1361 31.6745C14.0717 31.7795 14.029 31.8963 14.0105 32.0181C13.992 32.1398 13.998 32.264 14.0283 32.3834C14.0586 32.5028 14.1125 32.6149 14.1868 32.7131C14.2611 32.8113 14.3543 32.8936 14.4609 32.9552C14.5676 33.0168 14.6855 33.0564 14.8077 33.0717C14.9298 33.087 15.0539 33.0777 15.1724 33.0442C15.2909 33.0108 15.4016 32.954 15.4978 32.8772C15.594 32.8003 15.6738 32.7049 15.7326 32.5967C17.9044 28.8434 21.743 26.6025 26 26.6025C30.257 26.6025 34.0956 28.8434 36.2674 32.5967C36.3262 32.7049 36.406 32.8003 36.5022 32.8772C36.5984 32.954 36.7091 33.0108 36.8276 33.0442C36.9461 33.0777 37.0701 33.087 37.1923 33.0717C37.3145 33.0564 37.4324 33.0168 37.5391 32.9552C37.6457 32.8936 37.7389 32.8113 37.8132 32.7131C37.8875 32.6149 37.9414 32.5028 37.9717 32.3834C38.002 32.264 38.008 32.1398 37.9895 32.0181C37.971 31.8963 37.9283 31.7795 37.8639 31.6745ZM19.5447 18.3028C19.5447 17.0261 19.9233 15.778 20.6326 14.7164C21.3419 13.6549 22.3501 12.8275 23.5297 12.3389C24.7092 11.8503 26.0072 11.7225 27.2594 11.9715C28.5116 12.2206 29.6618 12.8354 30.5646 13.7382C31.4674 14.641 32.0822 15.7912 32.3313 17.0435C32.5804 18.2957 32.4525 19.5936 31.9639 20.7732C31.4753 21.9527 30.6479 22.9609 29.5864 23.6702C28.5248 24.3795 27.2767 24.7581 26 24.7581C24.2885 24.7563 22.6476 24.0756 21.4374 22.8654C20.2272 21.6552 19.5465 20.0143 19.5447 18.3028Z" fill="#001433"/>
</g>
<defs>
<filter id="filter0_d_88_360" x="0" y="0" width="52" height="52" filterUnits="userSpaceOnUse" color-interpolation-filters="sRGB">
<feFlood flood-opacity="0" result="BackgroundImageFix"/>
<feColorMatrix in="SourceAlpha" type="matrix" values="0 0 0 0 0 0 0 0 0 0 0 0 0 0 0 0 0 0 127 0" result="hardAlpha"/>
<feOffset dy="4"/>
<feGaussianBlur stdDeviation="2"/>
<feComposite in2="hardAlpha" operator="out"/>
<feColorMatrix type="matrix" values="0 0 0 0 0 0 0 0 0 0 0 0 0 0 0 0 0 0 0.25 0"/>
<feBlend mode="normal" in2="BackgroundImageFix" result="effect1_dropShadow_88_360"/>
<feBlend mode="normal" in="SourceGraphic" in2="effect1_dropShadow_88_360" result="shape"/>
</filter>
</defs>
</svg>
